<?xml version="1.0" encoding="UTF-8" standalone="no"?>
<svg
   xmlns:dc="http://purl.org/dc/elements/1.1/"
   xmlns:cc="http://creativecommons.org/ns#"
   xmlns:rdf="http://www.w3.org/1999/02/22-rdf-syntax-ns#"
   xmlns:svg="http://www.w3.org/2000/svg"
   xmlns="http://www.w3.org/2000/svg"
   xmlns:sodipodi="http://sodipodi.sourceforge.net/DTD/sodipodi-0.dtd"
   xmlns:inkscape="http://www.inkscape.org/namespaces/inkscape"
   width="32"
   height="32"
   viewBox="0 0 32 32"
   version="1.1"
   id="svg883"
   sodipodi:docname="help.svg"
   inkscape:version="0.92.4 (5da689c313, 2019-01-14)">
  <metadata
     id="metadata887">
    <rdf:RDF>
      <cc:Work
         rdf:about="">
        <dc:format>image/svg+xml</dc:format>
        <dc:type
           rdf:resource="http://purl.org/dc/dcmitype/StillImage" />
        <dc:title />
      </cc:Work>
    </rdf:RDF>
  </metadata>
  <sodipodi:namedview
     pagecolor="#ffffff"
     bordercolor="#666666"
     borderopacity="1"
     objecttolerance="10"
     gridtolerance="10"
     guidetolerance="10"
     inkscape:pageopacity="0"
     inkscape:pageshadow="2"
     inkscape:window-width="1920"
     inkscape:window-height="1016"
     id="namedview885"
     showgrid="false"
     inkscape:pagecheckerboard="true"
     inkscape:zoom="25.90625"
     inkscape:cx="16"
     inkscape:cy="16"
     inkscape:window-x="0"
     inkscape:window-y="27"
     inkscape:window-maximized="1"
     inkscape:current-layer="svg883" />
  <defs
     id="defs873">
    <style
       id="style871">.a{fill:none;stroke:#fff;stroke-linecap:round;stroke-linejoin:round;stroke-width:2px;}</style>
  </defs>
  <g
     transform="translate(1 1)"
     id="g881"
     style="stroke:#222222;stroke-opacity:1">
    <path
       class="a"
       d="M11.25,11.5a4,4,0,1,1,5.333,3.773A2,2,0,0,0,15.25,17.16V18.5"
       transform="translate(-0.25 -0.5)"
       id="path875"
       style="stroke:#222222;stroke-opacity:1" />
    <path
       class="a"
       d="M15.031,21.563a.5.5,0,1,0,.5.5.5.5,0,0,0-.5-.5h0"
       transform="translate(-0.031 0.438)"
       id="path877"
       style="stroke:#222222;stroke-opacity:1" />
    <path
       class="a"
       d="M15.937.938a15,15,0,1,1-15,15A15,15,0,0,1,15.937.938Z"
       transform="translate(-0.938 -0.938)"
       id="path879"
       style="stroke:#222222;stroke-opacity:1" />
  </g>
</svg>
