<?xml version="1.0" encoding="UTF-8" standalone="no"?>
<svg
   xmlns:dc="http://purl.org/dc/elements/1.1/"
   xmlns:cc="http://creativecommons.org/ns#"
   xmlns:rdf="http://www.w3.org/1999/02/22-rdf-syntax-ns#"
   xmlns:svg="http://www.w3.org/2000/svg"
   xmlns="http://www.w3.org/2000/svg"
   xmlns:sodipodi="http://sodipodi.sourceforge.net/DTD/sodipodi-0.dtd"
   xmlns:inkscape="http://www.inkscape.org/namespaces/inkscape"
   width="32"
   height="32"
   viewBox="0 0 31.999999 32.000001"
   version="1.1"
   id="svg6502"
   sodipodi:docname="pv-page-first.svg"
   inkscape:version="0.92.4 (5da689c313, 2019-01-14)">
  <metadata
     id="metadata6506">
    <rdf:RDF>
      <cc:Work
         rdf:about="">
        <dc:format>image/svg+xml</dc:format>
        <dc:type
           rdf:resource="http://purl.org/dc/dcmitype/StillImage" />
        <dc:title></dc:title>
      </cc:Work>
    </rdf:RDF>
  </metadata>
  <sodipodi:namedview
     pagecolor="#ffffff"
     bordercolor="#666666"
     borderopacity="1"
     objecttolerance="10"
     gridtolerance="10"
     guidetolerance="10"
     inkscape:pageopacity="0"
     inkscape:pageshadow="2"
     inkscape:window-width="1920"
     inkscape:window-height="1016"
     id="namedview6504"
     showgrid="false"
     inkscape:pagecheckerboard="true"
     inkscape:zoom="10.65944"
     inkscape:cx="-2.2735294"
     inkscape:cy="15.897006"
     inkscape:window-x="0"
     inkscape:window-y="27"
     inkscape:window-maximized="1"
     inkscape:current-layer="svg6502"
     fit-margin-top="0"
     fit-margin-left="0"
     fit-margin-right="0"
     fit-margin-bottom="0" />
  <defs
     id="defs6492">
    <style
       id="style6490">.a{fill:none;stroke:#1d808b;stroke-linecap:round;stroke-linejoin:round;stroke-width:2px;}</style>
  </defs>
  <g
     transform="matrix(1.4547035,0,0,1.4547035,1.4483115,1.4850303)"
     id="g6500"
     style="stroke:#222222;stroke-opacity:1">
    <g
       transform="rotate(-90,10.001,10.939)"
       id="g6498"
       style="stroke:#222222;stroke-opacity:1">
      <path
         class="a"
         d="m 11.953,11.717 a 1.334,1.334 0 0 0 -1.879,-0.153 1.307,1.307 0 0 0 -0.153,0.153 l -8.668,10 a 1.334,1.334 0 0 0 1.016,2.2 H 19.6 a 1.333,1.333 0 0 0 1.016,-2.2 z"
         transform="translate(0,-2.977)"
         id="path6494"
         style="fill:none;stroke:#222222;stroke-width:2px;stroke-linecap:round;stroke-linejoin:round;stroke-opacity:1"
         inkscape:connector-curvature="0" />
      <path
         class="a"
         d="m 18.94,13.606 h 0.667 a 1.333,1.333 0 0 0 1.016,-2.2 l -8.668,-10 A 1.334,1.334 0 0 0 10.076,1.253 1.307,1.307 0 0 0 9.923,1.406 l -8.668,10 a 1.334,1.334 0 0 0 1.014,2.2 h 0.669"
         transform="translate(-0.001)"
         id="path6496"
         style="fill:none;stroke:#222222;stroke-width:2px;stroke-linecap:round;stroke-linejoin:round;stroke-opacity:1"
         inkscape:connector-curvature="0" />
    </g>
  </g>
</svg>
