<?xml version="1.0" encoding="UTF-8" standalone="no"?>
<svg
   xmlns:dc="http://purl.org/dc/elements/1.1/"
   xmlns:cc="http://creativecommons.org/ns#"
   xmlns:rdf="http://www.w3.org/1999/02/22-rdf-syntax-ns#"
   xmlns:svg="http://www.w3.org/2000/svg"
   xmlns="http://www.w3.org/2000/svg"
   xmlns:sodipodi="http://sodipodi.sourceforge.net/DTD/sodipodi-0.dtd"
   xmlns:inkscape="http://www.inkscape.org/namespaces/inkscape"
   version="1.1"
   viewBox="0 0 32.000046 31.999954"
   width="32.000046"
   height="31.999954"
   id="svg921"
   sodipodi:docname="pv-tags.svg"
   inkscape:version="0.92.4 (5da689c313, 2019-01-14)">
  <metadata
     id="metadata927">
    <rdf:RDF>
      <cc:Work
         rdf:about="">
        <dc:format>image/svg+xml</dc:format>
        <dc:type
           rdf:resource="http://purl.org/dc/dcmitype/StillImage" />
        <dc:title>Exported from Streamline App (https://app.streamlineicons.com)</dc:title>
        <dc:title>Exported from Streamline App (https://app.streamlineicons.com)</dc:title>
      </cc:Work>
    </rdf:RDF>
  </metadata>
  <defs
     id="defs925" />
  <sodipodi:namedview
     pagecolor="#ffffff"
     bordercolor="#666666"
     borderopacity="1"
     objecttolerance="10"
     gridtolerance="10"
     guidetolerance="10"
     inkscape:pageopacity="0"
     inkscape:pageshadow="2"
     inkscape:window-width="1920"
     inkscape:window-height="1016"
     id="namedview923"
     showgrid="false"
     scale-x="0.7"
     inkscape:pagecheckerboard="true"
     fit-margin-top="0"
     fit-margin-left="0"
     fit-margin-right="0"
     fit-margin-bottom="0"
     inkscape:zoom="10.855399"
     inkscape:cx="2.6854376"
     inkscape:cy="10.393589"
     inkscape:window-x="0"
     inkscape:window-y="27"
     inkscape:window-maximized="1"
     inkscape:current-layer="svg921" />
  <title
     id="title913">Exported from Streamline App (https://app.streamlineicons.com)</title>
  <g
     transform="matrix(1.3690714,0,0,1.3690089,-0.42578121,-0.42439276)"
     id="g919"
     style="stroke:#222222;stroke-opacity:1">
    <path
       d="m 1.061,2.56 v 6.257 c 0,0.795 0.316,1.558 0.878,2.121 L 13.5,22.5 c 0.586,0.586 1.535,0.586 2.121,0 L 22.5,15.62 c 0.586,-0.586 0.586,-1.535 0,-2.121 L 10.939,1.938 C 10.376,1.376 9.613,1.06 8.818,1.06 H 2.561 c -0.828,0 -1.5,0.672 -1.5,1.5 z"
       id="path915"
       inkscape:connector-curvature="0"
       style="fill:none;stroke:#222222;stroke-width:1.5;stroke-linecap:round;stroke-linejoin:round;stroke-opacity:1" />
    <path
       d="m 6.311,4.81 c 0.828,0 1.5,0.672 1.5,1.5 0,0.828 -0.672,1.5 -1.5,1.5 -0.828,0 -1.5,-0.672 -1.5,-1.5 0,-0.828 0.672,-1.5 1.5,-1.5 z"
       id="path917"
       inkscape:connector-curvature="0"
       style="fill:none;stroke:#222222;stroke-width:1.5;stroke-linecap:round;stroke-linejoin:round;stroke-opacity:1" />
  </g>
</svg>
