<?xml version="1.0" encoding="UTF-8" standalone="no"?>
<svg
   xmlns:dc="http://purl.org/dc/elements/1.1/"
   xmlns:cc="http://creativecommons.org/ns#"
   xmlns:rdf="http://www.w3.org/1999/02/22-rdf-syntax-ns#"
   xmlns:svg="http://www.w3.org/2000/svg"
   xmlns="http://www.w3.org/2000/svg"
   xmlns:sodipodi="http://sodipodi.sourceforge.net/DTD/sodipodi-0.dtd"
   xmlns:inkscape="http://www.inkscape.org/namespaces/inkscape"
   width="24"
   height="24"
   viewBox="0 0 24 24"
   version="1.1"
   id="svg1332"
   sodipodi:docname="twitter.svg"
   inkscape:version="0.92.4 (5da689c313, 2019-01-14)">
  <metadata
     id="metadata1336">
    <rdf:RDF>
      <cc:Work
         rdf:about="">
        <dc:format>image/svg+xml</dc:format>
        <dc:type
           rdf:resource="http://purl.org/dc/dcmitype/StillImage" />
        <dc:title></dc:title>
      </cc:Work>
    </rdf:RDF>
  </metadata>
  <sodipodi:namedview
     pagecolor="#ffffff"
     bordercolor="#666666"
     borderopacity="1"
     objecttolerance="10"
     gridtolerance="10"
     guidetolerance="10"
     inkscape:pageopacity="0"
     inkscape:pageshadow="2"
     inkscape:window-width="1920"
     inkscape:window-height="1016"
     id="namedview1334"
     showgrid="false"
     inkscape:pagecheckerboard="true"
     inkscape:zoom="9.44"
     inkscape:cx="15.4375"
     inkscape:cy="12.5"
     inkscape:window-x="0"
     inkscape:window-y="27"
     inkscape:window-maximized="1"
     inkscape:current-layer="svg1332" />
  <defs
     id="defs1328">
    <style
       id="style1326">.a{fill:#fff;}</style>
  </defs>
  <path
     class="a"
     d="m 24,4.6503636 a 11.0023,11.002323 0 0 1 -2.817814,0.77733 4.6258785,4.625888 0 0 0 2.137652,-2.72143 10.113036,10.113057 0 0 1 -3.109312,1.21496 4.9150445,4.9150546 0 0 0 -8.502413,3.35263 4.1408259,4.1408344 0 0 0 0.146138,1.11702 13.983352,13.983381 0 0 1 -10.1542348,-5.10084 5.0160972,5.0161075 0 0 0 -0.6311903,2.42916 4.9088259,4.908836 0 0 0 2.1866235,4.0809797 4.9679028,4.967913 0 0 1 -2.2355951,-0.6319697 v 0.049 a 4.9033846,4.9033947 0 0 0 3.9356113,4.8093394 5.3208097,5.3208206 0 0 1 -1.3113522,0.19433 5.380664,5.380675 0 0 1 -0.9234656,-0.0972 4.9204858,4.9204959 0 0 0 4.5668016,3.40082 9.9155951,9.9156154 0 0 1 -6.1214575,2.08946 A 9.3613603,9.3613795 0 0 1 0,19.565763 a 13.723725,13.723753 0 0 0 7.5789474,2.23404 c 9.0364376,0 13.9919026,-7.48179 13.9919026,-13.9919294 v -0.63119 A 10.040745,10.040766 0 0 0 24,4.6503636 Z"
     id="path1330"
     inkscape:connector-curvature="0"
     style="fill:#ffffff;stroke-width:0.77732873" />
</svg>
