<svg xmlns="http://www.w3.org/2000/svg" xmlns:xlink="http://www.w3.org/1999/xlink" viewBox="0 0 814.8141 288">
  <defs>
    <linearGradient id="linear-gradient" x1="3.6" y1="108" x2="3.6" y2="180" gradientUnits="userSpaceOnUse">
      <stop offset="0.001" stop-color="#87c837"/>
      <stop offset="1" stop-color="#00779b"/>
    </linearGradient>
    <linearGradient id="linear-gradient-2" x1="75.6" y1="169.2" x2="75.6" y2="176.4" xlink:href="#linear-gradient"/>
    <linearGradient id="linear-gradient-3" x1="18" y1="79.2" x2="18" y2="208.8" xlink:href="#linear-gradient"/>
    <linearGradient id="linear-gradient-4" x1="32.4" y1="54" x2="32.4" y2="234" xlink:href="#linear-gradient"/>
    <linearGradient id="linear-gradient-5" x1="46.8" y1="39.6" x2="46.8" y2="212.4" xlink:href="#linear-gradient"/>
    <linearGradient id="linear-gradient-6" x1="61.2" y1="25.2" x2="61.2" y2="79.2" xlink:href="#linear-gradient"/>
    <linearGradient id="linear-gradient-7" x1="75.6" y1="18" x2="75.6" y2="118.8" xlink:href="#linear-gradient"/>
    <linearGradient id="linear-gradient-8" x1="90" y1="10.8" x2="90" y2="97.2" xlink:href="#linear-gradient"/>
    <linearGradient id="linear-gradient-9" x1="104.4" y1="36" x2="104.4" y2="86.4" xlink:href="#linear-gradient"/>
    <linearGradient id="linear-gradient-10" x1="104.4" y1="3.6" x2="104.4" y2="28.8" xlink:href="#linear-gradient"/>
    <linearGradient id="linear-gradient-11" x1="118.8" y1="0" x2="118.8" y2="79.2" xlink:href="#linear-gradient"/>
    <linearGradient id="linear-gradient-12" x1="90" y1="190.8" x2="90" y2="277.2" xlink:href="#linear-gradient"/>
    <linearGradient id="linear-gradient-13" x1="75.6" y1="183.6" x2="75.6" y2="270" xlink:href="#linear-gradient"/>
    <linearGradient id="linear-gradient-14" x1="104.4" y1="201.6" x2="104.4" y2="284.4" xlink:href="#linear-gradient"/>
    <linearGradient id="linear-gradient-15" x1="118.8" y1="208.8" x2="118.8" y2="244.8" xlink:href="#linear-gradient"/>
    <linearGradient id="linear-gradient-16" x1="118.8" y1="252" x2="118.8" y2="288" xlink:href="#linear-gradient"/>
    <linearGradient id="linear-gradient-17" x1="133.2" y1="212.4" x2="133.2" y2="288" xlink:href="#linear-gradient"/>
    <linearGradient id="linear-gradient-18" x1="133.2" y1="0" x2="133.2" y2="75.6" xlink:href="#linear-gradient"/>
    <linearGradient id="linear-gradient-19" x1="147.6" y1="216" x2="147.6" y2="288" xlink:href="#linear-gradient"/>
    <linearGradient id="linear-gradient-20" x1="147.6" y1="0" x2="147.6" y2="57.6" xlink:href="#linear-gradient"/>
    <linearGradient id="linear-gradient-21" x1="162" y1="0" x2="162" y2="75.6" xlink:href="#linear-gradient"/>
    <linearGradient id="linear-gradient-22" x1="176.4" y1="3.6" x2="176.4" y2="79.2" xlink:href="#linear-gradient"/>
    <linearGradient id="linear-gradient-23" x1="190.8" y1="7.2" x2="190.8" y2="90" xlink:href="#linear-gradient"/>
    <linearGradient id="linear-gradient-24" x1="190.8" y1="198" x2="190.8" y2="244.8" xlink:href="#linear-gradient"/>
    <linearGradient id="linear-gradient-25" x1="190.8" y1="266.4" x2="190.8" y2="280.8" xlink:href="#linear-gradient"/>
    <linearGradient id="linear-gradient-26" x1="205.2" y1="14.4" x2="205.2" y2="82.8" xlink:href="#linear-gradient"/>
    <linearGradient id="linear-gradient-27" x1="205.2" y1="205.2" x2="205.2" y2="273.6" xlink:href="#linear-gradient"/>
    <linearGradient id="linear-gradient-28" x1="219.6" y1="21.6" x2="219.6" y2="68.4" xlink:href="#linear-gradient"/>
    <linearGradient id="linear-gradient-29" x1="219.6" y1="219.6" x2="219.6" y2="266.4" xlink:href="#linear-gradient"/>
    <linearGradient id="linear-gradient-30" x1="234" y1="32.4" x2="234" y2="54" xlink:href="#linear-gradient"/>
    <linearGradient id="linear-gradient-31" x1="234" y1="234" x2="234" y2="255.6" xlink:href="#linear-gradient"/>
    <linearGradient id="linear-gradient-32" x1="176.4" y1="208.8" x2="176.4" y2="284.4" xlink:href="#linear-gradient"/>
    <linearGradient id="linear-gradient-33" x1="162" y1="212.4" x2="162" y2="288" xlink:href="#linear-gradient"/>
    <linearGradient id="linear-gradient-34" x1="248.4" y1="43.2" x2="248.4" y2="50.4" xlink:href="#linear-gradient"/>
    <linearGradient id="linear-gradient-35" x1="147.6" y1="64.8" x2="147.6" y2="72" xlink:href="#linear-gradient"/>
    <linearGradient id="linear-gradient-36" x1="248.4" y1="237.6" x2="248.4" y2="244.8" xlink:href="#linear-gradient"/>
    <linearGradient id="linear-gradient-37" x1="190.8" y1="252" x2="190.8" y2="259.2" xlink:href="#linear-gradient"/>
    <linearGradient id="linear-gradient-38" x1="61.2" y1="86.4" x2="61.2" y2="262.8" xlink:href="#linear-gradient"/>
    <linearGradient id="linear-gradient-39" x1="46.8" y1="219.6" x2="46.8" y2="248.4" xlink:href="#linear-gradient"/>
  </defs>
  <title>cdn-heritage-logo-full-color-rgb</title>
  <g id="full-rgb">
    <g>
      <path id="fullLogo" d="M3.6,180A3.6,3.6,0,0,1,0,176.4V111.6a3.6,3.6,0,0,1,7.2,0v64.8A3.6,3.6,0,0,1,3.6,180Z" style="fill: url(#linear-gradient)"/>
      <circle id="fullLogo-2" data-name="fullLogo" cx="75.6" cy="172.8" r="3.6" style="fill: url(#linear-gradient-2)"/>
      <path id="fullLogo-3" data-name="fullLogo" d="M18,208.8a3.6,3.6,0,0,1-3.6-3.6V82.8a3.6,3.6,0,0,1,7.2,0V205.2A3.6,3.6,0,0,1,18,208.8Z" style="fill: url(#linear-gradient-3)"/>
      <path id="fullLogo-4" data-name="fullLogo" d="M32.4,234a3.6,3.6,0,0,1-3.6-3.6V57.6a3.6,3.6,0,0,1,7.2,0V230.4A3.6,3.6,0,0,1,32.4,234Z" style="fill: url(#linear-gradient-4)"/>
      <path id="fullLogo-5" data-name="fullLogo" d="M46.8,212.4a3.6,3.6,0,0,1-3.6-3.6V43.2a3.6,3.6,0,0,1,7.2,0V208.8A3.6,3.6,0,0,1,46.8,212.4Z" style="fill: url(#linear-gradient-5)"/>
      <path id="fullLogo-6" data-name="fullLogo" d="M61.2,79.2a3.6,3.6,0,0,1-3.6-3.6V28.8a3.6,3.6,0,1,1,7.2,0V75.6A3.6,3.6,0,0,1,61.2,79.2Z" style="fill: url(#linear-gradient-6)"/>
      <path id="fullLogo-7" data-name="fullLogo" d="M75.6,118.8a3.6,3.6,0,0,1-3.6-3.6V21.6a3.6,3.6,0,0,1,7.2,0v93.6A3.6,3.6,0,0,1,75.6,118.8Z" style="fill: url(#linear-gradient-7)"/>
      <path id="fullLogo-8" data-name="fullLogo" d="M90,97.2a3.6,3.6,0,0,1-3.6-3.6V14.4a3.6,3.6,0,1,1,7.2,0V93.6A3.6,3.6,0,0,1,90,97.2Z" style="fill: url(#linear-gradient-8)"/>
      <path id="fullLogo-9" data-name="fullLogo" d="M104.4,86.4a3.6,3.6,0,0,1-3.6-3.6V39.6a3.6,3.6,0,1,1,7.2,0V82.8A3.6,3.6,0,0,1,104.4,86.4Z" style="fill: url(#linear-gradient-9)"/>
      <path id="fullLogo-10" data-name="fullLogo" d="M104.4,28.8a3.6,3.6,0,0,1-3.6-3.6V7.2a3.6,3.6,0,1,1,7.2,0v18A3.6,3.6,0,0,1,104.4,28.8Z" style="fill: url(#linear-gradient-10)"/>
      <path id="fullLogo-11" data-name="fullLogo" d="M118.8,79.2a3.6,3.6,0,0,1-3.6-3.6V3.6a3.6,3.6,0,0,1,7.2,0v72A3.6,3.6,0,0,1,118.8,79.2Z" style="fill: url(#linear-gradient-11)"/>
      <path id="fullLogo-12" data-name="fullLogo" d="M90,277.2a3.6,3.6,0,0,1-3.6-3.6V194.4a3.6,3.6,0,0,1,7.2,0v79.2A3.6,3.6,0,0,1,90,277.2Z" style="fill: url(#linear-gradient-12)"/>
      <path id="fullLogo-13" data-name="fullLogo" d="M75.6,270a3.6,3.6,0,0,1-3.6-3.6V187.2a3.6,3.6,0,0,1,7.2,0v79.2A3.6,3.6,0,0,1,75.6,270Z" style="fill: url(#linear-gradient-13)"/>
      <path id="fullLogo-14" data-name="fullLogo" d="M104.4,284.4a3.6,3.6,0,0,1-3.6-3.6V205.2a3.6,3.6,0,1,1,7.2,0v75.6A3.6,3.6,0,0,1,104.4,284.4Z" style="fill: url(#linear-gradient-14)"/>
      <path id="fullLogo-15" data-name="fullLogo" d="M118.8,244.8a3.6,3.6,0,0,1-3.6-3.6V212.4a3.6,3.6,0,0,1,7.2,0v28.8A3.6,3.6,0,0,1,118.8,244.8Z" style="fill: url(#linear-gradient-15)"/>
      <path id="fullLogo-16" data-name="fullLogo" d="M118.8,288a3.6,3.6,0,0,1-3.6-3.6V255.6a3.6,3.6,0,0,1,7.2,0v28.8A3.6,3.6,0,0,1,118.8,288Z" style="fill: url(#linear-gradient-16)"/>
      <path id="fullLogo-17" data-name="fullLogo" d="M133.2,288a3.6,3.6,0,0,1-3.6-3.6V216a3.6,3.6,0,0,1,7.2,0v68.4A3.6,3.6,0,0,1,133.2,288Z" style="fill: url(#linear-gradient-17)"/>
      <path id="fullLogo-18" data-name="fullLogo" d="M133.2,75.6a3.6,3.6,0,0,1-3.6-3.6V3.6a3.6,3.6,0,0,1,7.2,0V72A3.6,3.6,0,0,1,133.2,75.6Z" style="fill: url(#linear-gradient-18)"/>
      <path id="fullLogo-19" data-name="fullLogo" d="M147.6,288a3.6,3.6,0,0,1-3.6-3.6V219.6a3.6,3.6,0,0,1,7.2,0v64.8A3.6,3.6,0,0,1,147.6,288Z" style="fill: url(#linear-gradient-19)"/>
      <path id="fullLogo-20" data-name="fullLogo" d="M147.6,57.6A3.6,3.6,0,0,1,144,54V3.6a3.6,3.6,0,1,1,7.2,0V54A3.6,3.6,0,0,1,147.6,57.6Z" style="fill: url(#linear-gradient-20)"/>
      <path id="fullLogo-21" data-name="fullLogo" d="M162,75.6a3.6,3.6,0,0,1-3.6-3.6V3.6a3.6,3.6,0,0,1,7.2,0V72A3.6,3.6,0,0,1,162,75.6Z" style="fill: url(#linear-gradient-21)"/>
      <path id="fullLogo-22" data-name="fullLogo" d="M176.4,79.2a3.6,3.6,0,0,1-3.6-3.6V7.2a3.6,3.6,0,1,1,7.2,0V75.6A3.6,3.6,0,0,1,176.4,79.2Z" style="fill: url(#linear-gradient-22)"/>
      <path id="fullLogo-23" data-name="fullLogo" d="M190.8,90a3.6,3.6,0,0,1-3.6-3.6V10.8a3.6,3.6,0,1,1,7.2,0V86.4A3.6,3.6,0,0,1,190.8,90Z" style="fill: url(#linear-gradient-23)"/>
      <path id="fullLogo-24" data-name="fullLogo" d="M190.8,244.8a3.6,3.6,0,0,1-3.6-3.6V201.6a3.6,3.6,0,1,1,7.2,0v39.6A3.6,3.6,0,0,1,190.8,244.8Z" style="fill: url(#linear-gradient-24)"/>
      <path id="fullLogo-25" data-name="fullLogo" d="M190.8,280.8a3.6,3.6,0,0,1-3.6-3.6V270a3.6,3.6,0,1,1,7.2,0v7.2A3.6,3.6,0,0,1,190.8,280.8Z" style="fill: url(#linear-gradient-25)"/>
      <path id="fullLogo-26" data-name="fullLogo" d="M205.2,82.8a3.6,3.6,0,0,1-3.6-3.6V18a3.6,3.6,0,0,1,7.2,0V79.2A3.6,3.6,0,0,1,205.2,82.8Z" style="fill: url(#linear-gradient-26)"/>
      <path id="fullLogo-27" data-name="fullLogo" d="M205.2,273.6a3.6,3.6,0,0,1-3.6-3.6V208.8a3.6,3.6,0,1,1,7.2,0V270A3.6,3.6,0,0,1,205.2,273.6Z" style="fill: url(#linear-gradient-27)"/>
      <path id="fullLogo-28" data-name="fullLogo" d="M219.6,68.4a3.6,3.6,0,0,1-3.6-3.6V25.2a3.6,3.6,0,1,1,7.2,0V64.8A3.6,3.6,0,0,1,219.6,68.4Z" style="fill: url(#linear-gradient-28)"/>
      <path id="fullLogo-29" data-name="fullLogo" d="M219.6,266.4a3.6,3.6,0,0,1-3.6-3.6V223.2a3.6,3.6,0,1,1,7.2,0v39.6A3.6,3.6,0,0,1,219.6,266.4Z" style="fill: url(#linear-gradient-29)"/>
      <path id="fullLogo-30" data-name="fullLogo" d="M234,54a3.6,3.6,0,0,1-3.6-3.6V36a3.6,3.6,0,0,1,7.2,0V50.4A3.6,3.6,0,0,1,234,54Z" style="fill: url(#linear-gradient-30)"/>
      <path id="fullLogo-31" data-name="fullLogo" d="M234,255.6a3.6,3.6,0,0,1-3.6-3.6V237.6a3.6,3.6,0,0,1,7.2,0V252A3.6,3.6,0,0,1,234,255.6Z" style="fill: url(#linear-gradient-31)"/>
      <path id="fullLogo-32" data-name="fullLogo" d="M176.4,284.4a3.6,3.6,0,0,1-3.6-3.6V212.4a3.6,3.6,0,0,1,7.2,0v68.4A3.6,3.6,0,0,1,176.4,284.4Z" style="fill: url(#linear-gradient-32)"/>
      <path id="fullLogo-33" data-name="fullLogo" d="M162,288a3.6,3.6,0,0,1-3.6-3.6V216a3.6,3.6,0,0,1,7.2,0v68.4A3.6,3.6,0,0,1,162,288Z" style="fill: url(#linear-gradient-33)"/>
      <circle id="fullLogo-34" data-name="fullLogo" cx="248.4" cy="46.8" r="3.6" style="fill: url(#linear-gradient-34)"/>
      <circle id="fullLogo-35" data-name="fullLogo" cx="147.6" cy="68.4" r="3.6" style="fill: url(#linear-gradient-35)"/>
      <circle id="fullLogo-36" data-name="fullLogo" cx="248.4" cy="241.2" r="3.6" style="fill: url(#linear-gradient-36)"/>
      <circle id="fullLogo-37" data-name="fullLogo" cx="190.8" cy="255.6" r="3.6" style="fill: url(#linear-gradient-37)"/>
      <path id="fullLogo-38" data-name="fullLogo" d="M61.2,262.8a3.6,3.6,0,0,1-3.6-3.6V90a3.6,3.6,0,0,1,7.2,0V259.2A3.6,3.6,0,0,1,61.2,262.8Z" style="fill: url(#linear-gradient-38)"/>
      <path id="fullLogo-39" data-name="fullLogo" d="M46.8,248.4a3.6,3.6,0,0,1-3.6-3.6V223.2a3.6,3.6,0,0,1,7.2,0v21.6A3.6,3.6,0,0,1,46.8,248.4Z" style="fill: url(#linear-gradient-39)"/>
      <path id="fullLogo-40" data-name="fullLogo" d="M342.7227,102.5286a13.0327,13.0327,0,0,1-1.8965,2.2864,17.2845,17.2845,0,0,1-3.1222,2.4261,19.3236,19.3236,0,0,1-4.2379,1.9235,17.058,17.058,0,0,1-5.2979.7808,19.0185,19.0185,0,0,1-7.5276-1.45,17.2928,17.2928,0,0,1-5.8544-4.0425,18.49,18.49,0,0,1-3.82-6.1345,22.2743,22.2743,0,0,1,0-15.3614,19.4025,19.4025,0,0,1,3.82-6.2461,17.66,17.66,0,0,1,5.8823-4.2092,18.4387,18.4387,0,0,1,7.6114-1.5336,17.9028,17.9028,0,0,1,5.2979.725,17.7238,17.7238,0,0,1,4.0983,1.8119,15.86,15.86,0,0,1,3.0106,2.37,17.3464,17.3464,0,0,1,2.036,2.4531l-3.7921,3.2347a22.4348,22.4348,0,0,0-1.59-1.98,10.9229,10.9229,0,0,0-2.2027-1.8677,12.8223,12.8223,0,0,0-2.9547-1.3941,12.1926,12.1926,0,0,0-3.848-.5574,12.225,12.225,0,0,0-9.6186,4.35,13.9951,13.9951,0,0,0-2.5927,4.6837,17.8665,17.8665,0,0,0-.8924,5.6878,17.1308,17.1308,0,0,0,.92,5.66,14.0876,14.0876,0,0,0,2.5927,4.6,11.8814,11.8814,0,0,0,4.07,3.0672,12.5407,12.5407,0,0,0,5.3528,1.1149,12.9884,12.9884,0,0,0,4.3217-.6412,12.4239,12.4239,0,0,0,3.0673-1.5336A11.9254,11.9254,0,0,0,337.62,100.94q.8073-.92,1.3661-1.5336Z"/>
      <path id="fullLogo-41" data-name="fullLogo" d="M365.7514,105.93a8.6428,8.6428,0,0,1-3.82,2.9,13.0339,13.0339,0,0,1-4.8791.9483,12.5656,12.5656,0,0,1-3.206-.4179,8.3746,8.3746,0,0,1-2.9-1.394,7.3294,7.3294,0,0,1-2.119-2.51,7.9885,7.9885,0,0,1-.8086-3.7634,8.3725,8.3725,0,0,1,2.9276-6.6918q2.9273-2.5086,8.448-2.509.8912,0,1.8956.0559t1.8957.1116q.8924.0563,1.5615.1108c.4466.0375.7616.075.9483.1117v-.9474a4.75,4.75,0,0,0-1.757-4.1542,8.0561,8.0561,0,0,0-4.7674-1.2553,11.2284,11.2284,0,0,0-4.6838.8087,18.5356,18.5356,0,0,0-2.9,1.6452l-2.3423-3.4013a12.2621,12.2621,0,0,1,1.6174-1.1158,13.9724,13.9724,0,0,1,2.2306-1.0311,18.178,18.178,0,0,1,2.9-.7808,20.24,20.24,0,0,1,3.7355-.307q5.02,0,7.8905,2.426a8.5178,8.5178,0,0,1,2.8718,6.8864v15.1111q0,1.3386.0559,2.2865H365.863Zm-.0558-9.1441c-.1492-.0366-.438-.0837-.8646-.14s-.92-.102-1.4777-.1395-1.1524-.0742-1.784-.1117-1.2458-.0558-1.8407-.0558a9.7458,9.7458,0,0,0-3.4293.5024,5.8114,5.8114,0,0,0-2.0631,1.2545,3.9789,3.9789,0,0,0-1.0311,1.6723,6.0324,6.0324,0,0,0-.2792,1.757,3.7527,3.7527,0,0,0,1.45,3.2059,6.5625,6.5625,0,0,0,4.0146,1.0878,7.64,7.64,0,0,0,2.76-.5025,8.112,8.112,0,0,0,2.3144-1.3382,6.78,6.78,0,0,0,1.6174-1.9514,4.6978,4.6978,0,0,0,.6133-2.2865Z"/>
      <path id="fullLogo-42" data-name="fullLogo" d="M378.7426,109.053V85.8q0-1.281-.0558-2.6764h4.7954l.1675,3.9039q.5011-.67,1.2265-1.4778a8.4041,8.4041,0,0,1,1.7849-1.4778,10.5307,10.5307,0,0,1,2.481-1.1149,10.6868,10.6868,0,0,1,3.2059-.4466q5.0745,0,7.5285,2.9555a12.194,12.194,0,0,1,2.4531,8.0293V109.053h-5.0187V93.8861q0-3.6248-1.5607-5.3258a5.6835,5.6835,0,0,0-4.4054-1.7,6.8021,6.8021,0,0,0-3.6247.8924,6.898,6.898,0,0,0-2.3144,2.3135,10.3731,10.3731,0,0,0-1.2544,3.2347,17.5758,17.5758,0,0,0-.39,3.7076V109.053Z"/>
      <path id="fullLogo-43" data-name="fullLogo" d="M426.6973,105.93a8.6434,8.6434,0,0,1-3.82,2.9,13.0339,13.0339,0,0,1-4.8791.9483,12.5656,12.5656,0,0,1-3.206-.4179,8.3746,8.3746,0,0,1-2.9-1.394,7.3294,7.3294,0,0,1-2.119-2.51,7.9885,7.9885,0,0,1-.8086-3.7634,8.3725,8.3725,0,0,1,2.9276-6.6918q2.9273-2.5086,8.448-2.509.891,0,1.8956.0559t1.8957.1116q.8923.0563,1.5615.1108c.4466.0375.7616.075.9482.1117v-.9474a4.75,4.75,0,0,0-1.7569-4.1542,8.0562,8.0562,0,0,0-4.7675-1.2553,11.2279,11.2279,0,0,0-4.6837.8087,18.5356,18.5356,0,0,0-2.9,1.6452l-2.3423-3.4013a12.2554,12.2554,0,0,1,1.6174-1.1158,13.9683,13.9683,0,0,1,2.2306-1.0311,18.178,18.178,0,0,1,2.9-.7808,20.24,20.24,0,0,1,3.7355-.307q5.02,0,7.89,2.426a8.5178,8.5178,0,0,1,2.8718,6.8864v15.1111q0,1.3386.0559,2.2865h-4.6838Zm-.0559-9.1441c-.1491-.0366-.4379-.0837-.8645-.14s-.92-.102-1.4777-.1395-1.1524-.0742-1.784-.1117-1.2458-.0558-1.8407-.0558a9.7458,9.7458,0,0,0-3.4293.5024,5.8114,5.8114,0,0,0-2.0631,1.2545,3.9789,3.9789,0,0,0-1.0311,1.6723,6.0324,6.0324,0,0,0-.2792,1.757,3.7527,3.7527,0,0,0,1.45,3.2059,6.562,6.562,0,0,0,4.0146,1.0878,7.64,7.64,0,0,0,2.76-.5025,8.112,8.112,0,0,0,2.3144-1.3382,6.78,6.78,0,0,0,1.6174-1.9514,4.6976,4.6976,0,0,0,.6132-2.2865Z"/>
      <path id="fullLogo-44" data-name="fullLogo" d="M458.3693,105.7633q-.28.3336-.92,1.0311a8.37,8.37,0,0,1-1.7011,1.3661,12.3228,12.3228,0,0,1-2.481,1.1716,9.9858,9.9858,0,0,1-3.3185.5016,11.0706,11.0706,0,0,1-4.572-.9482,10.9013,10.9013,0,0,1-3.68-2.6764,12.1407,12.1407,0,0,1-2.4252-4.21,16.75,16.75,0,0,1-.8645-5.5482,14.3909,14.3909,0,0,1,1.2824-6.329,13.2688,13.2688,0,0,1,3.2617-4.35,12.878,12.878,0,0,1,4.2938-2.481,13.7233,13.7233,0,0,1,4.3775-.7807,11.3582,11.3582,0,0,1,4.35.6691q1.56.67,2.3973,1.0041V71.86h5.0187v34.5726q0,1.2274.0558,2.6206h-4.907Zm0-16.8959a12.904,12.904,0,0,0-2.0632-1.1987,9.8142,9.8142,0,0,0-4.2937-.7528,8.3353,8.3353,0,0,0-3.3735.6691,7.983,7.983,0,0,0-2.6764,1.8956,8.6255,8.6255,0,0,0-1.7839,3.0114,11.795,11.795,0,0,0-.6412,4.0147,13.2205,13.2205,0,0,0,.4457,3.485,8.3773,8.3773,0,0,0,1.3662,2.8719,6.3872,6.3872,0,0,0,2.3423,1.9235,7.5808,7.5808,0,0,0,3.3734.697,7.1716,7.1716,0,0,0,3.3455-.7249,6.9013,6.9013,0,0,0,2.2586-1.8119,7.4891,7.4891,0,0,0,1.2823-2.3981,8.0257,8.0257,0,0,0,.4179-2.4252Z"/>
      <path id="fullLogo-45" data-name="fullLogo" d="M471.64,72.8639h5.6319v5.6319H471.64Zm.335,10.26h5.0178V109.053h-5.0178Z"/>
      <path id="fullLogo-46" data-name="fullLogo" d="M501.75,105.93a8.6425,8.6425,0,0,1-3.82,2.9,13.0344,13.0344,0,0,1-4.8792.9483,12.5654,12.5654,0,0,1-3.2059-.4179,8.3746,8.3746,0,0,1-2.9-1.394,7.3294,7.3294,0,0,1-2.119-2.51,7.9884,7.9884,0,0,1-.8087-3.7634,8.3726,8.3726,0,0,1,2.9277-6.6918q2.9273-2.5086,8.4479-2.509.8912,0,1.8957.0559t1.8956.1116q.8925.0563,1.5616.1108c.4466.0375.7615.075.9482.1117v-.9474a4.75,4.75,0,0,0-1.7569-4.1542,8.0564,8.0564,0,0,0-4.7675-1.2553,11.2275,11.2275,0,0,0-4.6837.8087,18.531,18.531,0,0,0-2.9,1.6452l-2.3423-3.4013a12.2605,12.2605,0,0,1,1.6173-1.1158,13.9737,13.9737,0,0,1,2.2307-1.0311,18.178,18.178,0,0,1,2.9-.7808,20.24,20.24,0,0,1,3.7355-.307q5.0195,0,7.8905,2.426a8.5181,8.5181,0,0,1,2.8718,6.8864v15.1111q0,1.3386.0558,2.2865h-4.6837Zm-.0558-9.1441c-.1492-.0366-.4379-.0837-.8645-.14s-.92-.102-1.4778-.1395-1.1524-.0742-1.784-.1117-1.2457-.0558-1.8406-.0558a9.745,9.745,0,0,0-3.4293.5024,5.8105,5.8105,0,0,0-2.0631,1.2545,3.98,3.98,0,0,0-1.0312,1.6723,6.0321,6.0321,0,0,0-.2791,1.757,3.7529,3.7529,0,0,0,1.45,3.2059,6.5626,6.5626,0,0,0,4.0147,1.0878,7.64,7.64,0,0,0,2.76-.5025,8.1134,8.1134,0,0,0,2.3144-1.3382,6.78,6.78,0,0,0,1.6173-1.9514,4.6967,4.6967,0,0,0,.6133-2.2865Z"/>
      <path id="fullLogo-47" data-name="fullLogo" d="M514.7423,109.053V85.8q0-1.281-.0559-2.6764h4.7954l.1675,3.9039q.5011-.67,1.2265-1.4778a8.4066,8.4066,0,0,1,1.7849-1.4778,10.5307,10.5307,0,0,1,2.481-1.1149,10.6868,10.6868,0,0,1,3.2059-.4466q5.0745,0,7.5285,2.9555a12.194,12.194,0,0,1,2.4531,8.0293V109.053h-5.0187V93.8861q0-3.6248-1.5607-5.3258a5.6833,5.6833,0,0,0-4.4054-1.7,6.8021,6.8021,0,0,0-3.6247.8924,6.8977,6.8977,0,0,0-2.3143,2.3135,10.3732,10.3732,0,0,0-1.2545,3.2347,17.5757,17.5757,0,0,0-.39,3.7076V109.053Z"/>
      <path id="fullLogo-48" data-name="fullLogo" d="M562.6969,105.93a8.6423,8.6423,0,0,1-3.82,2.9,13.0339,13.0339,0,0,1-4.8791.9483,12.5648,12.5648,0,0,1-3.2059-.4179,8.3759,8.3759,0,0,1-2.9-1.394,7.328,7.328,0,0,1-2.1189-2.51,7.9884,7.9884,0,0,1-.8087-3.7634,8.3728,8.3728,0,0,1,2.9276-6.6918q2.9272-2.5086,8.448-2.509.8911,0,1.8956.0559t1.8957.1116q.8923.0563,1.5615.1108c.4467.0375.7616.075.9483.1117v-.9474a4.75,4.75,0,0,0-1.757-4.1542,8.0561,8.0561,0,0,0-4.7674-1.2553,11.2275,11.2275,0,0,0-4.6837.8087,18.537,18.537,0,0,0-2.9,1.6452l-2.3423-3.4013a12.2621,12.2621,0,0,1,1.6174-1.1158,13.9724,13.9724,0,0,1,2.2306-1.0311,18.1764,18.1764,0,0,1,2.9-.7808,20.2384,20.2384,0,0,1,3.7354-.307q5.02,0,7.8905,2.426a8.5178,8.5178,0,0,1,2.8719,6.8864v15.1111q0,1.3386.0558,2.2865h-4.6837Zm-.0558-9.1441c-.1492-.0366-.4379-.0837-.8645-.14s-.92-.102-1.4778-.1395-1.1524-.0742-1.784-.1117-1.2457-.0558-1.8407-.0558a9.7448,9.7448,0,0,0-3.4292.5024,5.811,5.811,0,0,0-2.0632,1.2545,3.9789,3.9789,0,0,0-1.0311,1.6723,6.0324,6.0324,0,0,0-.2792,1.757,3.753,3.753,0,0,0,1.45,3.2059,6.5625,6.5625,0,0,0,4.0146,1.0878,7.641,7.641,0,0,0,2.76-.5025,8.1148,8.1148,0,0,0,2.3144-1.3382,6.78,6.78,0,0,0,1.6173-1.9514,4.6967,4.6967,0,0,0,.6133-2.2865Z"/>
      <path id="fullLogo-49" data-name="fullLogo" d="M313.1479,136.0656h12.4826v36.28h47.463v-36.28h12.4827v86.7337H373.0935V183.5286h-47.463v39.2707H313.1479Z"/>
      <path id="fullLogo-50" data-name="fullLogo" d="M461.9064,213.9561a37.177,37.177,0,0,1-3.1207,2.9925,26.3079,26.3079,0,0,1-5.3971,3.5092,41.2939,41.2939,0,0,1-7.8016,2.9274,38.59,38.59,0,0,1-10.2083,1.2349,34.3679,34.3679,0,0,1-12.8733-2.3415,28.4613,28.4613,0,0,1-10.0109-6.632,29.7129,29.7129,0,0,1-6.4387-10.2713,37.0194,37.0194,0,0,1-2.2744-13.2639,34.43,34.43,0,0,1,2.2113-12.4175,29.4715,29.4715,0,0,1,27.9558-19.1817,28.0413,28.0413,0,0,1,13.3941,2.9925,26.6578,26.6578,0,0,1,9.1667,7.9318,33.95,33.95,0,0,1,5.2669,11.3129,51.5889,51.5889,0,0,1,1.69,13.2639H415.7453a18.2,18.2,0,0,0,1.7536,7.4111,18.7512,18.7512,0,0,0,4.3576,5.8507,21.0156,21.0156,0,0,0,6.2413,3.9019,19.44,19.44,0,0,0,7.4111,1.43q7.6714,0,12.6149-2.6a25.8161,25.8161,0,0,0,7.1506-5.0716ZM451.3746,187.3a19.6061,19.6061,0,0,0-4.9414-11.9639q-4.4246-4.94-12.4847-4.9414a18.722,18.722,0,0,0-7.4761,1.43,17.9917,17.9917,0,0,0-5.6575,3.7716,16.9156,16.9156,0,0,0-3.6394,5.3971,17.6993,17.6993,0,0,0-1.43,6.3064Zm-15.7355-52.4043h12.743L438.3712,152.58h-9.7526Z"/>
      <path id="fullLogo-51" data-name="fullLogo" d="M479.721,222.7993V168.1857q0-2.8593-.13-5.8528h11.1827l.3906,9.7526a31.5658,31.5658,0,0,1,2.73-3.4462,20.27,20.27,0,0,1,4.0971-3.4441,25.7351,25.7351,0,0,1,5.59-2.667,22.4522,22.4522,0,0,1,7.348-1.1047,22.8,22.8,0,0,1,3.5764.26,16.884,16.884,0,0,1,3.0555.7792L514.96,173.3854a17.2714,17.2714,0,0,0-18.4636,4.4878,19.2484,19.2484,0,0,0-3.7065,5.9158,18.9443,18.9443,0,0,0-1.3651,7.1527v31.8576Z"/>
      <path id="fullLogo-52" data-name="fullLogo" d="M530.0443,138.4071h13.1336v13.1337H530.0443Zm.7812,23.9258h11.7014v60.4664H530.8255Z"/>
      <path id="fullLogo-53" data-name="fullLogo" d="M567.6225,172.0855H556.7v-9.7526h10.9224V142.5673H579.326v19.7656H597.01v9.7526H579.326V201.864q0,7.284,2.2744,10.013a7.9071,7.9071,0,0,0,6.4366,2.73,13.1447,13.1447,0,0,0,5.5924-1.04,17.3119,17.3119,0,0,0,4.4206-3.1206l5.3319,7.1507a22.3329,22.3329,0,0,1-17.1656,6.8923q-9.6245,0-14.1081-5.2018-4.4857-5.2-4.4857-16.2543Z"/>
      <path id="fullLogo-54" data-name="fullLogo" d="M653.4428,215.5164a20.1581,20.1581,0,0,1-8.9083,6.7622,30.3974,30.3974,0,0,1-11.3781,2.2113,29.3,29.3,0,0,1-7.4761-.9745,19.5335,19.5335,0,0,1-6.7622-3.2508,17.0888,17.0888,0,0,1-4.9413-5.8528,18.6279,18.6279,0,0,1-1.8859-8.7761q0-9.7526,6.8272-15.6054,6.8262-5.85,19.7005-5.8507,2.0781,0,4.4206.13,2.3406.1313,4.4206.26,2.0811.1313,3.6415.2583c1.0416.0875,1.7759.175,2.2113.26V182.88q0-6.762-4.0971-9.6874-4.0951-2.9265-11.1177-2.9274-6.8933,0-10.9223,1.8858a43.2169,43.2169,0,0,0-6.7621,3.8367l-5.4622-7.9318a28.5792,28.5792,0,0,1,3.7716-2.6019,32.5744,32.5744,0,0,1,5.2018-2.4046,42.3919,42.3919,0,0,1,6.7622-1.8208,47.1927,47.1927,0,0,1,8.711-.716q11.7056,0,18.4005,5.6574t6.697,16.0591v35.2387q0,3.1216.13,5.3319H653.7032Zm-.13-21.3238c-.3479-.0855-1.0212-.1953-2.016-.3255q-1.4954-.1953-3.4462-.3255-1.95-.1283-4.16-.26-2.2124-.1283-4.2924-.13a22.72,22.72,0,0,0-7.997,1.1718,13.5493,13.5493,0,0,0-4.8112,2.9253,9.2814,9.2814,0,0,0-2.4046,3.9,14.07,14.07,0,0,0-.651,4.0972q0,4.9434,3.3811,7.4762,3.381,2.5357,9.362,2.5368a17.8178,17.8178,0,0,0,6.4366-1.1718,18.9221,18.9221,0,0,0,5.3971-3.1207,15.8128,15.8128,0,0,0,3.7717-4.5508,10.9533,10.9533,0,0,0,1.43-5.332Z"/>
      <path id="fullLogo-55" data-name="fullLogo" d="M691.8022,235.1518a29.6823,29.6823,0,0,0,7.348,3.5764,32.8581,32.8581,0,0,0,10.5968,1.4952q8.709,0,13.0035-4.8112,4.29-4.8122,4.29-12.6129v-7.411q-.9094.7781-2.4046,2.1442a19.1525,19.1525,0,0,1-3.7717,2.6019,30.1678,30.1678,0,0,1-5.3971,2.2093,23.9521,23.9521,0,0,1-7.1506.9764,28.7829,28.7829,0,0,1-11.7686-2.2764,24.7442,24.7442,0,0,1-8.648-6.2413,26.7105,26.7105,0,0,1-5.33-9.4922,38.207,38.207,0,0,1-1.8208-12.029,33.2414,33.2414,0,0,1,2.47-12.9384,30.61,30.61,0,0,1,6.9574-10.2733,31.439,31.439,0,0,1,10.7271-6.76,38.4317,38.4317,0,0,1,13.9148-2.4066,69.0934,69.0934,0,0,1,13.7826,1.3,61.6576,61.6576,0,0,1,10.2734,2.8623v57.7343q0,13.1337-7.6064,20.35t-21.391,7.2178q-9.2338,0-14.694-2.016a33.6047,33.6047,0,0,1-8.8432-4.6159Zm35.3689-62.1549q-1.1688-.3906-3.965-1.1067a36.6247,36.6247,0,0,0-8.3875-.7141,23.78,23.78,0,0,0-8.9734,1.6255A20.3234,20.3234,0,0,0,694.3369,184.31a23.4176,23.4176,0,0,0-1.6234,8.8412,29.99,29.99,0,0,0,.9745,7.8016,17.496,17.496,0,0,0,3.1206,6.3736,15.0155,15.0155,0,0,0,5.3971,4.29,18.2267,18.2267,0,0,0,7.9319,1.56,20.2209,20.2209,0,0,0,7.5413-1.3,15.1348,15.1348,0,0,0,5.3319-3.4461,14.4177,14.4177,0,0,0,3.1207-4.8112,15.1046,15.1046,0,0,0,1.04-5.5273Z"/>
      <path id="fullLogo-56" data-name="fullLogo" d="M813.2538,213.9561a37.1613,37.1613,0,0,1-3.1207,2.9925,26.3069,26.3069,0,0,1-5.397,3.5092,41.2924,41.2924,0,0,1-7.8017,2.9274,38.59,38.59,0,0,1-10.2083,1.2349,34.367,34.367,0,0,1-12.8732-2.3415,28.4617,28.4617,0,0,1-10.011-6.632,29.7141,29.7141,0,0,1-6.4386-10.2713,37.0194,37.0194,0,0,1-2.2744-13.2639,34.43,34.43,0,0,1,2.2113-12.4175,29.4713,29.4713,0,0,1,27.9558-19.1817,28.0409,28.0409,0,0,1,13.394,2.9925,26.6568,26.6568,0,0,1,9.1667,7.9318,33.9462,33.9462,0,0,1,5.2669,11.3129,51.5889,51.5889,0,0,1,1.6905,13.2639H767.0928a18.2,18.2,0,0,0,1.7536,7.4111,18.7524,18.7524,0,0,0,4.3575,5.8507,21.0156,21.0156,0,0,0,6.2413,3.9019,19.44,19.44,0,0,0,7.4111,1.43q7.6714,0,12.6149-2.6a25.8168,25.8168,0,0,0,7.1507-5.0716ZM802.7221,187.3a19.6067,19.6067,0,0,0-4.9414-11.9639q-4.4247-4.94-12.4847-4.9414a18.7224,18.7224,0,0,0-7.4762,1.43,17.994,17.994,0,0,0-5.6575,3.7716,16.9156,16.9156,0,0,0-3.6394,5.3971,17.7013,17.7013,0,0,0-1.43,6.3064Z"/>
    </g>
  </g>
</svg>
