<svg xmlns="http://www.w3.org/2000/svg" width="24.849" height="25" viewBox="0 0 24.849 25"><defs><style>.a{fill:#fff;}</style></defs><path class="a" d="M26.6,22.4Z" transform="translate(-13.236 -11.155)"/><path class="a" d="M22.992,0H1.857A1.811,1.811,0,0,0,0,1.807V23.193A1.811,1.811,0,0,0,1.857,25H22.992a1.843,1.843,0,0,0,1.857-1.807V1.807A1.876,1.876,0,0,0,22.992,0ZM7.53,20.884H3.765V9.639H7.53ZM5.622,8.082h0A1.941,1.941,0,0,1,3.514,6.124,1.969,1.969,0,0,1,5.622,4.167,1.969,1.969,0,0,1,7.731,6.124,1.889,1.889,0,0,1,5.622,8.082Zm15.412,12.8H17.269V14.859c0-1.506-.552-2.56-1.908-2.56a2.006,2.006,0,0,0-1.908,1.355,2.493,2.493,0,0,0-.1.9v6.275H9.588s.05-10.241,0-11.3h3.765v1.606a3.768,3.768,0,0,1,3.363-1.857c2.46,0,4.317,1.606,4.317,5.07Z"/></svg>