<svg xmlns="http://www.w3.org/2000/svg" width="30.875" height="25" viewBox="0 0 30.875 25"><defs><style>.a{fill:#fff;}</style></defs><path class="a" d="M30.775,2.938a14.154,14.154,0,0,1-3.625,1A5.951,5.951,0,0,0,29.9.437,13.01,13.01,0,0,1,25.9,2,6.323,6.323,0,0,0,14.962,6.313,5.327,5.327,0,0,0,15.15,7.75,17.989,17.989,0,0,1,2.087,1.188a6.453,6.453,0,0,0-.812,3.125,6.315,6.315,0,0,0,2.813,5.25A6.391,6.391,0,0,1,1.212,8.75v.063A6.308,6.308,0,0,0,6.275,15a6.845,6.845,0,0,1-1.687.25A6.922,6.922,0,0,1,3.4,15.125,6.33,6.33,0,0,0,9.275,19.5,12.756,12.756,0,0,1,1.4,22.188a12.043,12.043,0,0,1-1.5-.062A17.655,17.655,0,0,0,9.65,25c11.625,0,18-9.625,18-18V6.188A12.917,12.917,0,0,0,30.775,2.938Z" transform="translate(0.1)"/></svg>